  0
SECTION
  2
HEADER
  9
$ACADVER
  1
AC1009
  0
ENDSEC
  0
SECTION
  2
ENTITIES
  0
POLYLINE
  5
90
  8
Layer_0
  62
0
  66
1
  10
0
  20
0
  30
0
  0
VERTEX
  5
90
  8
Layer_0
  10
327.53882
  20
337.76196
  0
VERTEX
  5
91
  8
Layer_0
  10
325.53882
  20
337.76196
  0
VERTEX
  5
92
  8
Layer_0
  10
325.53882
  20
335.802
  0
VERTEX
  5
93
  8
Layer_0
  10
322.14697
  20
335.802
  0
VERTEX
  5
94
  8
Layer_0
  10
322.14697
  20
347.96191
  0
VERTEX
  5
95
  8
Layer_0
  10
325.53882
  20
347.96191
  0
VERTEX
  5
96
  8
Layer_0
  10
325.53882
  20
346.07397
  0
VERTEX
  5
97
  8
Layer_0
  10
327.53882
  20
346.07397
  0
VERTEX
  5
98
  8
Layer_0
  10
327.53882
  20
349.96191
  0
VERTEX
  5
99
  8
Layer_0
  10
270.53882
  20
349.96191
  0
VERTEX
  5
9a
  8
Layer_0
  10
270.53882
  20
346.00195
  0
VERTEX
  5
9b
  8
Layer_0
  10
272.53882
  20
346.00195
  0
VERTEX
  5
9c
  8
Layer_0
  10
272.53882
  20
347.96191
  0
VERTEX
  5
9d
  8
Layer_0
  10
275.93091
  20
347.96191
  0
VERTEX
  5
9e
  8
Layer_0
  10
275.93091
  20
335.802
  0
VERTEX
  5
9f
  8
Layer_0
  10
272.53882
  20
335.802
  0
VERTEX
  5
a0
  8
Layer_0
  10
272.53882
  20
337.68994
  0
VERTEX
  5
a1
  8
Layer_0
  10
270.53882
  20
337.68994
  0
VERTEX
  5
a2
  8
Layer_0
  10
270.53882
  20
333.802
  0
VERTEX
  5
a3
  8
Layer_0
  10
327.53882
  20
333.802
  0
VERTEX
  5
a4
  8
Layer_0
  10
327.53882
  20
337.76196
  0
SEQEND
  0
POLYLINE
  5
a6
  8
Layer_0
  62
0
  66
1
  10
0
  20
0
  30
0
  0
VERTEX
  5
a6
  8
Layer_0
  10
327.53882
  20
317.76196
  0
VERTEX
  5
a7
  8
Layer_0
  10
325.53882
  20
317.76196
  0
VERTEX
  5
a8
  8
Layer_0
  10
325.53882
  20
315.802
  0
VERTEX
  5
a9
  8
Layer_0
  10
322.14697
  20
315.802
  0
VERTEX
  5
aa
  8
Layer_0
  10
322.14697
  20
327.96191
  0
VERTEX
  5
ab
  8
Layer_0
  10
325.53882
  20
327.96191
  0
VERTEX
  5
ac
  8
Layer_0
  10
325.53882
  20
326.07397
  0
VERTEX
  5
ad
  8
Layer_0
  10
327.53882
  20
326.07397
  0
VERTEX
  5
ae
  8
Layer_0
  10
327.53882
  20
329.96191
  0
VERTEX
  5
af
  8
Layer_0
  10
270.53882
  20
329.96191
  0
VERTEX
  5
b0
  8
Layer_0
  10
270.53882
  20
326.00195
  0
VERTEX
  5
b1
  8
Layer_0
  10
272.53882
  20
326.00195
  0
VERTEX
  5
b2
  8
Layer_0
  10
272.53882
  20
327.96191
  0
VERTEX
  5
b3
  8
Layer_0
  10
275.93091
  20
327.96191
  0
VERTEX
  5
b4
  8
Layer_0
  10
275.93091
  20
315.802
  0
VERTEX
  5
b5
  8
Layer_0
  10
272.53882
  20
315.802
  0
VERTEX
  5
b6
  8
Layer_0
  10
272.53882
  20
317.68994
  0
VERTEX
  5
b7
  8
Layer_0
  10
270.53882
  20
317.68994
  0
VERTEX
  5
b8
  8
Layer_0
  10
270.53882
  20
313.802
  0
VERTEX
  5
b9
  8
Layer_0
  10
327.53882
  20
313.802
  0
VERTEX
  5
ba
  8
Layer_0
  10
327.53882
  20
317.76196
  0
SEQEND
  0
POLYLINE
  5
bc
  8
Layer_0
  62
0
  66
1
  10
0
  20
0
  30
0
  0
VERTEX
  5
bc
  8
Layer_0
  10
327.53882
  20
297.76196
  0
VERTEX
  5
bd
  8
Layer_0
  10
325.53882
  20
297.76196
  0
VERTEX
  5
be
  8
Layer_0
  10
325.53882
  20
295.802
  0
VERTEX
  5
bf
  8
Layer_0
  10
322.14697
  20
295.802
  0
VERTEX
  5
c0
  8
Layer_0
  10
322.14697
  20
307.96191
  0
VERTEX
  5
c1
  8
Layer_0
  10
325.53882
  20
307.96191
  0
VERTEX
  5
c2
  8
Layer_0
  10
325.53882
  20
306.07397
  0
VERTEX
  5
c3
  8
Layer_0
  10
327.53882
  20
306.07397
  0
VERTEX
  5
c4
  8
Layer_0
  10
327.53882
  20
309.96191
  0
VERTEX
  5
c5
  8
Layer_0
  10
270.53882
  20
309.96191
  0
VERTEX
  5
c6
  8
Layer_0
  10
270.53882
  20
306.00195
  0
VERTEX
  5
c7
  8
Layer_0
  10
272.53882
  20
306.00195
  0
VERTEX
  5
c8
  8
Layer_0
  10
272.53882
  20
307.96191
  0
VERTEX
  5
c9
  8
Layer_0
  10
275.93091
  20
307.96191
  0
VERTEX
  5
ca
  8
Layer_0
  10
275.93091
  20
295.802
  0
VERTEX
  5
cb
  8
Layer_0
  10
272.53882
  20
295.802
  0
VERTEX
  5
cc
  8
Layer_0
  10
272.53882
  20
297.68994
  0
VERTEX
  5
cd
  8
Layer_0
  10
270.53882
  20
297.68994
  0
VERTEX
  5
ce
  8
Layer_0
  10
270.53882
  20
293.802
  0
VERTEX
  5
cf
  8
Layer_0
  10
327.53882
  20
293.802
  0
VERTEX
  5
d0
  8
Layer_0
  10
327.53882
  20
297.76196
  0
SEQEND
  0
ENDSEC
  0
EOF
